<svg version="1.1" xmlns="http://www.w3.org/2000/svg" xmlns:xlink="http://www.w3.org/1999/xlink" width="16" height="16" viewBox="0,0,256,256"><g fill="#152786" fill-rule="evenodd" stroke="none" stroke-width="1" stroke-linecap="butt" stroke-linejoin="miter" stroke-miterlimit="10" stroke-dasharray="" stroke-dashoffset="0" font-family="none" font-weight="none" font-size="none" text-anchor="none" style="mix-blend-mode: normal"><g transform="scale(16,16)"><path d="M0,0h1v15h15v1h-16zM10,3.5c0,-0.27614 0.22386,-0.5 0.5,-0.5h4c0.27614,0 0.5,0.22386 0.5,0.5v4c0,0.27614 -0.22386,0.5 -0.5,0.5c-0.27614,0 -0.5,-0.22386 -0.5,-0.5v-2.6l-3.613,4.417c-0.08944,0.10917 -0.22085,0.17545 -0.3618,0.1825c-0.14095,0.00705 -0.27832,-0.0458 -0.3782,-0.1455l-2.587,-2.587l-3.656,5.027c-0.16621,0.21135 -0.46982,0.25341 -0.68723,0.0952c-0.21741,-0.15821 -0.27076,-0.46004 -0.12077,-0.6832l4,-5.5c0.08592,-0.11836 0.21937,-0.19317 0.36517,-0.20471c0.14581,-0.01154 0.28935,0.04134 0.39283,0.14471l2.609,2.61l3.482,-4.256h-2.945c-0.27614,0 -0.5,-0.22386 -0.5,-0.5z"></path></g></g></svg>