<svg version="1.1" xmlns="http://www.w3.org/2000/svg" xmlns:xlink="http://www.w3.org/1999/xlink" width="16" height="16" viewBox="0,0,256,256"><g fill="#152786" fill-rule="evenodd" stroke="none" stroke-width="1" stroke-linecap="butt" stroke-linejoin="miter" stroke-miterlimit="10" stroke-dasharray="" stroke-dashoffset="0" font-family="none" font-weight="none" font-size="none" text-anchor="none" style="mix-blend-mode: normal"><g transform="scale(16,16)"><path d="M0,5c0,-1.10457 0.89543,-2 2,-2h7.5c1.00339,-0.00012 1.85156,0.74326 1.983,1.738l3.11,-1.382c0.30929,-0.13781 0.6673,-0.10975 0.95134,0.07456c0.28404,0.18431 0.45552,0.49984 0.45566,0.83844v7.462c-0.0003,0.33833 -0.17164,0.65356 -0.45539,0.83782c-0.28375,0.18426 -0.64142,0.21254 -0.95061,0.07518l-3.111,-1.382c-0.13144,0.99474 -0.97961,1.73812 -1.983,1.738h-7.5c-1.10457,0 -2,-0.89543 -2,-2z"></path></g></g></svg>