<svg version="1.1" xmlns="http://www.w3.org/2000/svg" xmlns:xlink="http://www.w3.org/1999/xlink" width="16" height="16" viewBox="0,0,256,256"><g fill="#152786" fill-rule="nonzero" stroke="none" stroke-width="1" stroke-linecap="butt" stroke-linejoin="miter" stroke-miterlimit="10" stroke-dasharray="" stroke-dashoffset="0" font-family="none" font-weight="none" font-size="none" text-anchor="none" style="mix-blend-mode: normal"><g transform="translate(0,-0.00022) scale(16,16)"><path d="M11.251,0.068c0.20155,0.11684 0.29569,0.35739 0.227,0.58l-1.801,5.852h3.323c0.19959,-0.00008 0.38011,0.11855 0.45923,0.30179c0.07912,0.18324 0.04169,0.39598 -0.09523,0.54121l-8,8.5c-0.15939,0.1695 -0.41463,0.20664 -0.61573,0.08962c-0.2011,-0.11703 -0.29489,-0.3573 -0.22627,-0.57962l1.801,-5.853h-3.323c-0.19959,0.00008 -0.38011,-0.11855 -0.45923,-0.30179c-0.07912,-0.18324 -0.04169,-0.39598 0.09523,-0.54121l8,-8.5c0.15919,-0.16925 0.41399,-0.20654 0.615,-0.09zM4.157,8.5h2.843c0.15868,-0.00003 0.30796,0.07526 0.40225,0.20289c0.09429,0.12763 0.1224,0.29244 0.07575,0.44411l-1.368,4.443l5.732,-6.09h-2.842c-0.15868,0.00003 -0.30796,-0.07526 -0.40225,-0.20289c-0.09429,-0.12763 -0.1224,-0.29244 -0.07575,-0.44411l1.368,-4.443z"></path></g></g></svg>