<svg version="1.1" xmlns="http://www.w3.org/2000/svg" xmlns:xlink="http://www.w3.org/1999/xlink" width="16" height="16" viewBox="0,0,256,256"><g fill="#152786" fill-rule="nonzero" stroke="none" stroke-width="1" stroke-linecap="butt" stroke-linejoin="miter" stroke-miterlimit="10" stroke-dasharray="" stroke-dashoffset="0" font-family="none" font-weight="none" font-size="none" text-anchor="none" style="mix-blend-mode: normal"><g transform="scale(16,16)"><path d="M4.5,12c-0.27614,0 -0.5,-0.22386 -0.5,-0.5v-2c0,-0.27614 0.22386,-0.5 0.5,-0.5h1c0.27614,0 0.5,0.22386 0.5,0.5v2c0,0.27614 -0.22386,0.5 -0.5,0.5zM7.5,12c-0.27614,0 -0.5,-0.22386 -0.5,-0.5v-4c0,-0.27614 0.22386,-0.5 0.5,-0.5h1c0.27614,0 0.5,0.22386 0.5,0.5v4c0,0.27614 -0.22386,0.5 -0.5,0.5zM10.5,12c-0.27614,0 -0.5,-0.22386 -0.5,-0.5v-6c0,-0.27614 0.22386,-0.5 0.5,-0.5h1c0.27614,0 0.5,0.22386 0.5,0.5v6c0,0.27614 -0.22386,0.5 -0.5,0.5z"></path><path d="M4,0c-1.10457,0 -2,0.89543 -2,2v12c0,1.10457 0.89543,2 2,2h8c1.10457,0 2,-0.89543 2,-2v-12c0,-1.10457 -0.89543,-2 -2,-2zM4,1h8c0.55228,0 1,0.44772 1,1v12c0,0.55228 -0.44772,1 -1,1h-8c-0.55228,0 -1,-0.44772 -1,-1v-12c0,-0.55228 0.44772,-1 1,-1z"></path></g></g></svg>