<svg version="1.1" xmlns="http://www.w3.org/2000/svg" xmlns:xlink="http://www.w3.org/1999/xlink" width="16" height="16" viewBox="0,0,256,256"><g fill="#152786" fill-rule="nonzero" stroke="none" stroke-width="1" stroke-linecap="butt" stroke-linejoin="miter" stroke-miterlimit="10" stroke-dasharray="" stroke-dashoffset="0" font-family="none" font-weight="none" font-size="none" text-anchor="none" style="mix-blend-mode: normal"><g transform="translate(0,-0.8) scale(16,16)"><path d="M13,2.5c0,-0.82843 0.67157,-1.5 1.5,-1.5c0.82843,0 1.5,0.67157 1.5,1.5v11c0,0.82843 -0.67157,1.5 -1.5,1.5c-0.82843,0 -1.5,-0.67157 -1.5,-1.5v-0.214c-2.162,-1.241 -4.49,-1.843 -6.912,-2.083l0.405,2.712c0.05507,0.29252 -0.02304,0.59436 -0.21308,0.82346c-0.19004,0.22909 -0.47226,0.36162 -0.76992,0.36154h-0.548c-0.3972,-0.00003 -0.75672,-0.23514 -0.916,-0.599l-1.85,-3.49c-0.06733,-0.0011 -0.13467,-0.0021 -0.202,-0.003c-1.10215,-0.01094 -1.99077,-0.9058 -1.994,-2.008v-2c0.00371,-1.10204 0.89005,-1.99773 1.992,-2.013c0.82803,-0.01123 1.65581,-0.03623 2.483,-0.075c3.043,-0.154 6.148,-0.849 8.525,-2.199zM14,2.5v11c0,0.27614 0.22386,0.5 0.5,0.5c0.27614,0 0.5,-0.22386 0.5,-0.5v-11c0,-0.27614 -0.22386,-0.5 -0.5,-0.5c-0.27614,0 -0.5,0.22386 -0.5,0.5zM13,3.85c-2.344,1.205 -5.209,1.842 -8,2.033v4.233c0.18,0.01 0.359,0.022 0.537,0.036c2.568,0.189 5.093,0.744 7.463,1.993zM4,10.065v-4.13c-0.6638,0.02429 -1.32784,0.04162 -1.992,0.052c-0.55592,0.00653 -1.00422,0.45705 -1.008,1.013v2c0,0.55 0.448,1.002 1.006,1.009c0.66493,0.00771 1.32969,0.02637 1.994,0.056zM3.343,11.04l1.609,3.037l0.01,0.024h0.548l-0.002,-0.014l-0.443,-2.966c-0.57363,-0.03461 -1.14768,-0.06194 -1.722,-0.082z"></path></g></g></svg>